<svg width="48" height="48" viewBox="0 0 48 48" fill="none" xmlns="http://www.w3.org/2000/svg">
<rect width="48" height="48" rx="8" fill="url(#paint0_radial_941_738)"/>
<rect x="0.5" y="0.5" width="47" height="47" rx="7.5" stroke="#C2CCF6" stroke-opacity="0.12"/>
<path d="M23.2971 25.1436L15.2079 30.595C15.0321 30.7708 14.7683 30.6829 14.5924 30.5071C14.5045 30.4191 14.5045 30.3312 14.5045 30.2433V17.7577C14.5045 17.494 14.6804 17.3181 14.9441 17.3181C15.0321 17.3181 15.12 17.3181 15.2079 17.406L23.2971 22.7695V17.7577C23.2971 17.494 23.473 17.3181 23.7368 17.3181C23.8247 17.3181 23.9126 17.3181 24.0006 17.406L33.3207 23.6488C33.4966 23.8247 33.5845 24.0884 33.4087 24.2643C33.4087 24.3522 33.3207 24.3522 33.3207 24.3522L24.0006 30.595C23.8247 30.7708 23.5609 30.6829 23.3851 30.5071C23.2971 30.4191 23.2971 30.3312 23.2971 30.2433V25.1436Z" fill="#DCE8FF"/>
<defs>
<radialGradient id="paint0_radial_941_738" cx="0" cy="0" r="1" gradientTransform="matrix(5.74737 54.675 -77.1732 81.8042 0.94737 -15.4875)" gradientUnits="userSpaceOnUse">
<stop offset="0.118248" stop-color="#00EAFF"/>
<stop offset="0.284212" stop-color="#0025CE"/>
<stop offset="0.423077" stop-color="#0A1589"/>
<stop offset="0.610591" stop-color="#080A53"/>
<stop offset="0.977768"/>
</radialGradient>
</defs>
</svg>
