<svg width="48" height="48" viewBox="0 0 48 48" fill="none" xmlns="http://www.w3.org/2000/svg">
<rect width="48" height="48" rx="8" fill="url(#paint0_radial_941_724)"/>
<rect x="0.5" y="0.5" width="47" height="47" rx="7.5" stroke="#C2CCF6" stroke-opacity="0.12"/>
<path d="M33.375 23.375H31.4688C31.1663 19.7375 28.2625 16.8338 24.625 16.5312V14.625C24.625 14.28 24.345 14 24 14C23.655 14 23.375 14.28 23.375 14.625V16.5312C19.7375 16.8338 16.8338 19.7375 16.5312 23.375H14.625C14.28 23.375 14 23.655 14 24C14 24.345 14.28 24.625 14.625 24.625H16.53C16.8325 28.2612 19.7375 31.1663 23.375 31.4688V33.375C23.375 33.72 23.655 34 24 34C24.345 34 24.625 33.72 24.625 33.375V31.4688C28.2625 31.1663 31.1675 28.2625 31.47 24.625H33.375C33.72 24.625 34 24.345 34 24C34 23.655 33.72 23.375 33.375 23.375ZM24 26.5C22.6187 26.5 21.5 25.3813 21.5 24C21.5 22.6187 22.6187 21.5 24 21.5C25.3813 21.5 26.5 22.6187 26.5 24C26.5 25.38 25.3813 26.5 24 26.5Z" fill="#DCE8FF"/>
<defs>
<radialGradient id="paint0_radial_941_724" cx="0" cy="0" r="1" gradientTransform="matrix(5.74737 54.675 -77.1732 81.8042 0.94737 -15.4875)" gradientUnits="userSpaceOnUse">
<stop offset="0.118248" stop-color="#00EAFF"/>
<stop offset="0.284212" stop-color="#0025CE"/>
<stop offset="0.423077" stop-color="#0A1589"/>
<stop offset="0.610591" stop-color="#080A53"/>
<stop offset="0.977768"/>
</radialGradient>
</defs>
</svg>
