<svg width="48" height="48" viewBox="0 0 48 48" fill="none" xmlns="http://www.w3.org/2000/svg">
<rect width="48" height="48" rx="8" fill="url(#paint0_radial_941_792)"/>
<rect x="0.5" y="0.5" width="47" height="47" rx="7.5" stroke="#C2CCF6" stroke-opacity="0.12"/>
<path d="M22.6152 24.6924C22.9977 24.6924 23.3076 25.0016 23.3076 25.3848V32.3076C23.3076 32.69 22.9977 33 22.6152 33H15.6924C15.31 33 15 32.69 15 32.3076V25.3848C15 25.0023 15.31 24.6924 15.6924 24.6924H22.6152ZM32.3076 24.6924C32.69 24.6924 32.9996 25.0015 32.999 25.3838V32.3066C32.999 32.6891 32.6891 32.999 32.3066 32.999H25.3848C25.0023 32.999 24.6924 32.6891 24.6924 32.3066V25.3848C24.6924 25.0023 25.0023 24.6924 25.3848 24.6924H32.3076ZM18.2695 26.0771C18.3886 26.2813 18.4619 26.5158 18.4619 26.7695C18.4619 27.5344 17.842 28.1543 17.0771 28.1543C16.8234 28.1543 16.5889 28.081 16.3848 27.9619V29.7305C16.5889 29.6114 16.8235 29.5381 17.0771 29.5381C17.8419 29.5381 18.4619 30.1581 18.4619 30.9229C18.4619 31.1765 18.3886 31.4111 18.2695 31.6152H20.0381C19.919 31.4111 19.8457 31.1765 19.8457 30.9229C19.8458 30.1581 20.4657 29.5381 21.2305 29.5381C21.4842 29.5381 21.7187 29.6114 21.9229 29.7305V27.9619C21.7187 28.081 21.4842 28.1543 21.2305 28.1543C20.4657 28.1543 19.8457 27.5344 19.8457 26.7695C19.8457 26.5158 19.919 26.2813 20.0381 26.0771H18.2695ZM27.0557 31.6152H28.5596L31.6152 28.5586V27.0557L27.0557 31.6152ZM30.5166 31.6152H31.6152V30.5166L30.5166 31.6152ZM26.0771 29.1328V30.6367L30.6367 26.0771H29.1328L26.0771 29.1328ZM19.1543 27.4609C19.919 27.461 20.539 28.081 20.5391 28.8457C20.5391 29.6104 19.919 30.2304 19.1543 30.2305C18.3895 30.2305 17.7695 29.6105 17.7695 28.8457C17.7696 28.081 18.3896 27.4609 19.1543 27.4609ZM26.0771 27.1748L27.1748 26.0771H26.0771V27.1748ZM22.6152 15C22.9977 15 23.3076 15.31 23.3076 15.6924V22.6152C23.3076 22.9977 22.9977 23.3076 22.6152 23.3076H15.6924C15.31 23.3076 15 22.9977 15 22.6152V15.6924C15 15.31 15.31 15 15.6924 15H22.6152ZM32.3076 15C32.69 15 33 15.31 33 15.6924V22.6152C33 22.9977 32.69 23.3076 32.3076 23.3076H25.3848C25.0023 23.3076 24.6924 22.9977 24.6924 22.6152V15.6924C24.6924 15.31 25.0023 15 25.3848 15H32.3076ZM26.0771 21.9229H31.6152V16.3848H26.0771V21.9229Z" fill="#DCE8FF"/>
<defs>
<radialGradient id="paint0_radial_941_792" cx="0" cy="0" r="1" gradientTransform="matrix(5.74737 54.675 -77.1732 81.8042 0.94737 -15.4875)" gradientUnits="userSpaceOnUse">
<stop offset="0.118248" stop-color="#00EAFF"/>
<stop offset="0.284212" stop-color="#0025CE"/>
<stop offset="0.423077" stop-color="#0A1589"/>
<stop offset="0.610591" stop-color="#080A53"/>
<stop offset="0.977768"/>
</radialGradient>
</defs>
</svg>
