<svg width="48" height="48" viewBox="0 0 48 48" fill="none" xmlns="http://www.w3.org/2000/svg">
<rect width="48" height="48" rx="8" fill="url(#paint0_radial_941_672)"/>
<rect x="0.5" y="0.5" width="47" height="47" rx="7.5" stroke="#C2CCF6" stroke-opacity="0.12"/>
<path d="M32.4274 23.703C32.9584 23.154 33.1384 22.365 32.8924 21.6419C32.6494 20.9219 32.0344 20.4029 31.2874 20.2859L27.9063 19.7669C27.6363 19.7249 27.4053 19.5509 27.2913 19.3019L25.8272 16.1668C25.4912 15.4468 24.7922 14.9998 24.0002 14.9998C23.2081 14.9998 22.5091 15.4468 22.1731 16.1668L20.7121 19.3019C20.5951 19.5509 20.3641 19.7249 20.0971 19.7669L16.713 20.2859C15.9629 20.3999 15.3479 20.9189 15.1079 21.6419C14.8649 22.365 15.0419 23.157 15.5729 23.703L18.108 26.3191C18.291 26.5051 18.372 26.7721 18.33 27.0301L17.745 30.6452C17.619 31.4192 17.94 32.1812 18.582 32.6312C19.218 33.0782 20.0341 33.1202 20.7151 32.7422L23.6072 31.1342C23.8532 30.9962 24.1472 30.9962 24.3962 31.1342L27.2883 32.7422C27.5943 32.9132 27.9303 33.0002 28.2663 33.0002C28.6713 33.0002 29.0733 32.8772 29.4213 32.6312C30.0633 32.1812 30.3843 31.4192 30.2583 30.6452L29.6673 27.0301C29.6253 26.7721 29.7093 26.5051 29.8893 26.3191L32.4274 23.703Z" fill="#DCE8FF"/>
<defs>
<radialGradient id="paint0_radial_941_672" cx="0" cy="0" r="1" gradientTransform="matrix(5.74737 54.675 -77.1732 81.8042 0.94737 -15.4875)" gradientUnits="userSpaceOnUse">
<stop offset="0.118248" stop-color="#00EAFF"/>
<stop offset="0.284212" stop-color="#0025CE"/>
<stop offset="0.423077" stop-color="#0A1589"/>
<stop offset="0.610591" stop-color="#080A53"/>
<stop offset="0.977768"/>
</radialGradient>
</defs>
</svg>
