<svg width="32" height="28" viewBox="0 0 32 28" fill="none" xmlns="http://www.w3.org/2000/svg">
<path d="M15.75 27.1534L2.60799 14.0113C1.55969 12.963 0.860829 11.7443 0.511397 10.3551C0.170488 8.96585 0.174749 7.58517 0.524181 6.21301C0.873613 4.83233 1.56822 3.63063 2.60799 2.6079C3.67333 1.5596 4.88782 0.865 6.25145 0.524092C7.62361 0.17466 8.99151 0.17466 10.3551 0.524092C11.7273 0.873523 12.9461 1.56813 14.0114 2.6079L15.75 4.2954L17.4887 2.6079C18.5625 1.56813 19.7813 0.873523 21.1449 0.524092C22.5086 0.17466 23.8722 0.17466 25.2358 0.524092C26.608 0.865 27.8267 1.5596 28.8921 2.6079C29.9319 3.63063 30.6265 4.83233 30.9759 6.21301C31.3253 7.58517 31.3253 8.96585 30.9759 10.3551C30.635 11.7443 29.9404 12.963 28.8921 14.0113L15.75 27.1534Z" fill="#DCE8FF"/>
</svg>
