<svg width="20" height="21" viewBox="0 0 20 21" fill="none" xmlns="http://www.w3.org/2000/svg">
<path d="M3.92969 14.8076C3.89647 16.4677 5.21503 17.8406 6.875 17.874C5.21492 17.8408 3.84201 19.1593 3.80859 20.8193C3.84201 19.1593 2.5233 17.7863 0.863281 17.7529C2.52328 17.7863 3.89624 16.4676 3.92969 14.8076ZM14.2734 10.4873C14.2353 13.1448 16.3592 15.3297 19.0166 15.3682C16.3591 15.33 14.1732 17.454 14.1348 20.1113C14.1732 17.454 12.0499 15.2679 9.39258 15.2295C12.0499 15.2679 14.235 13.1447 14.2734 10.4873ZM7.40723 0C7.30713 3.99042 10.4605 7.30678 14.4512 7.40723C10.4609 7.30733 7.14464 10.4608 7.04395 14.4512C7.14385 10.4608 3.99053 7.14445 0 7.04395C3.99054 7.14405 7.30698 3.9908 7.40723 0Z" fill="#999999"/>
</svg>
